<?xml version="1.0" encoding="utf-8"?>
<!-- Generator: Adobe Illustrator 24.1.2, SVG Export Plug-In . SVG Version: 6.00 Build 0)  -->
<svg version="1.1" id="Capa_1" xmlns="http://www.w3.org/2000/svg" xmlns:xlink="http://www.w3.org/1999/xlink" x="0px" y="0px"
	 viewBox="0 0 200 200" style="enable-background:new 0 0 200 200;" xml:space="preserve">
<style type="text/css">
	.st0{fill:none;}
	.st1{fill:#1D1D1B;}
	.st2{font-family:'BarlowSemiCondensed-SemiBold';}
	.st3{font-size:7.5px;}
	.st4{font-family:'BarlowSemiCondensed-Light';}
	.st5{fill:#D8D8D8;}
	.st6{fill:#EF781F;}
	.st7{fill:none;stroke:#1D1E1C;stroke-width:0.2174;stroke-miterlimit:10;}
</style>
<g>
	<g>
		<rect x="100.4718" y="63.2882" class="st0" width="32.3194" height="16.1871"/>
		<text transform="matrix(1 0 0 1 109.8892 68.5391)"><tspan x="0" y="0" class="st1 st2 st3">45%</tspan><tspan x="-7.125" y="9" class="st1 st4 st3">Despierto</tspan></text>
	</g>
	<g>
		<rect x="52.1826" y="142.3959" class="st0" width="95.9149" height="7.227"/>
		<text transform="matrix(1 0 0 1 78.0789 147.6458)" class="st1 st4 st3">Actividad diaria</text>
	</g>
	<g>
		<g>
			<line class="st0" x1="53.1632" y1="138.8185" x2="147.3945" y2="138.8185"/>
			<g>
				<g>
					<line class="st0" x1="53.1632" y1="138.8185" x2="53.1632" y2="136.9352"/>
					<line class="st0" x1="147.3945" y1="138.8185" x2="147.3945" y2="136.9352"/>
				</g>
				<g>
				</g>
			</g>
		</g>
		<g>
			<g>
				<text transform="matrix(1 0 0 1 51.691 140.4752)" class="st0 st4 st3">0</text>
				<text transform="matrix(1 0 0 1 51.691 127.9196)" class="st0 st4 st3">10</text>
				<text transform="matrix(1 0 0 1 51.691 115.3639)" class="st0 st4 st3">20</text>
				<text transform="matrix(1 0 0 1 51.691 102.8082)" class="st0 st4 st3">30</text>
				<text transform="matrix(1 0 0 1 51.691 90.2526)" class="st0 st4 st3">40</text>
				<text transform="matrix(1 0 0 1 51.691 77.6969)" class="st0 st4 st3">50</text>
				<text transform="matrix(1 0 0 1 51.691 65.1412)" class="st0 st4 st3">60</text>
			</g>
			<line class="st0" x1="53.1632" y1="138.8185" x2="53.1632" y2="63.4852"/>
			<g>
				<g>
					<line class="st0" x1="53.1632" y1="138.8185" x2="55.519" y2="138.8185"/>
					<line class="st0" x1="53.1632" y1="126.2629" x2="55.519" y2="126.2629"/>
					<line class="st0" x1="53.1632" y1="113.7074" x2="55.519" y2="113.7074"/>
					<line class="st0" x1="53.1632" y1="101.1518" x2="55.519" y2="101.1518"/>
					<line class="st0" x1="53.1632" y1="88.5963" x2="55.519" y2="88.5963"/>
					<line class="st0" x1="53.1632" y1="76.0407" x2="55.519" y2="76.0407"/>
					<line class="st0" x1="53.1632" y1="63.4852" x2="55.519" y2="63.4852"/>
				</g>
				<g>
				</g>
			</g>
		</g>
		<g>
			<g>
				<rect x="76.721" y="52.4227" class="st0" width="5.8895" height="7.0625"/>
				<g>
					<rect x="111.7077" y="82.3185" class="st5" width="9.9885" height="56.5"/>
				</g>
			</g>
			<g>
				<rect x="53.1632" y="52.4227" class="st0" width="5.8895" height="7.0625"/>
				<g>
					<rect x="76.8614" y="69.7629" class="st6" width="9.9885" height="69.0556"/>
				</g>
			</g>
		</g>
		<g>
			<g>
			</g>
			<g>
			</g>
		</g>
		<g>
			<text transform="matrix(1 0 0 1 83.3468 57.61)"><tspan x="0" y="0" class="st0 st4 st3">Despie</tspan><tspan x="19.4473" y="0" class="st0 st4 st3">r</tspan><tspan x="21.9219" y="0" class="st0 st4 st3">t</tspan><tspan x="24.187" y="0" class="st0 st4 st3">o</tspan></text>
			<text transform="matrix(1 0 0 1 59.7892 57.61)" class="st0 st4 st3">Dormido</text>
		</g>
	</g>
</g>
<line class="st0" x1="54.6907" y1="128.1976" x2="143.0307" y2="128.1976"/>
<line class="st0" x1="54.6907" y1="115.7254" x2="143.0307" y2="115.7254"/>
<line class="st0" x1="54.6907" y1="103.1328" x2="143.0307" y2="103.1328"/>
<line class="st0" x1="54.6907" y1="90.5309" x2="143.0307" y2="90.5309"/>
<line class="st0" x1="54.6907" y1="65.7605" x2="143.0307" y2="65.7605"/>
<line class="st7" x1="55.6907" y1="138.8087" x2="144.0307" y2="138.8087"/>
<g>
	<rect x="64.2878" y="51.1495" class="st0" width="34.2816" height="16.1871"/>
	<text transform="matrix(1 0 0 1 74.8352 56.4001)"><tspan x="0" y="0" class="st1 st2 st3">55%</tspan><tspan x="-5.5459" y="9" class="st1 st4 st3">Dormido</tspan></text>
</g>
</svg>
