<?xml version="1.0" encoding="utf-8"?>
<!-- Generator: Adobe Illustrator 24.1.2, SVG Export Plug-In . SVG Version: 6.00 Build 0)  -->
<svg version="1.1" id="Capa_1" xmlns="http://www.w3.org/2000/svg" xmlns:xlink="http://www.w3.org/1999/xlink" x="0px" y="0px"
	 viewBox="0 0 99.6304 74.9375" style="enable-background:new 0 0 99.6304 74.9375;" xml:space="preserve">
<style type="text/css">
	.st0{fill:none;}
	.st1{fill:#1D1D1B;}
	.st2{font-family:'BarlowSemiCondensed-LightItalic';}
	.st3{font-size:7.5px;}
	.st4{font-family:'BarlowSemiCondensed-Light';}
	.st5{fill:#DFDFDE;}
	.st6{fill:#777776;}
	.st7{font-family:'BarlowSemiCondensed-SemiBold';}
	.st8{font-size:8.5px;}
	.st9{fill:none;stroke:#1D1E1C;stroke-width:0.2174;stroke-miterlimit:10;}
</style>
<rect x="0.0002" y="1.1258" class="st0" width="96.2313" height="5.7229"/>
<text transform="matrix(1 0 0 1 0.0002 6.375)" class="st1 st2 st3">Peso y medidas de un panda adulto:</text>
<rect x="10.3511" y="68.1206" class="st0" width="33.5954" height="5.5449"/>
<text transform="matrix(1 0 0 1 12.2126 73.3701)" class="st1 st4 st3">37 a 47 cm</text>
<rect x="45.9035" y="68.1206" class="st0" width="41.2061" height="5.5449"/>
<text transform="matrix(1 0 0 1 51.2518 73.3701)" class="st1 st4 st3">56 a 63 cm</text>
<path class="st5" d="M10.0001,53.6308l38.5547-0.1995l38.5547,0.1995v0.3999c-6.4258,1.407-12.8516,2.1431-19.2773,2.6431
	c-3.2129,0.3132-6.4258,0.3828-9.6387,0.5671c-3.2129,0.1113-6.4258,0.1218-9.6387,0.1877
	c-3.2129-0.0554-6.4258-0.0811-9.6387-0.1785c-3.2129-0.1897-6.4258-0.25-9.6387-0.5664
	c-6.4258-0.498-12.8516-1.2375-19.2773-2.6531V53.6308z"/>
<path class="st6" d="M28.4072,36.7032c2.0875-0.791,4.2298-1.2444,6.4651-0.8128c1.4031,0.271,2.3318,1.0351,2.4293,2.4998
	c0.1268,1.9059,0.015,3.8369-0.1028,5.7499c-0.0945,1.5342-0.3151,3.0637-0.5471,4.5841c-0.1884,1.2358,0.1739,2.1496,1.1879,2.8208
	c0.9573,0.6336,1.85,1.3857,2.8462,1.9398c1.9596,1.09,3.962,0.7538,5.9376-0.0315c0.0898-0.0357,0.1697-0.107,0.244-0.174
	c0.3504-0.3163,0.3228-0.6159-0.0656-0.8634c-0.2305-0.1469-0.4938-0.2389-0.722-0.3889c-1.0676-0.7017-1.4516-1.509-1.048-2.7359
	c0.6989-2.1249,1.8863-3.931,3.8902-4.927c2.142-1.0647,4.4294-1.1947,6.7254-0.6432c0.7408,0.1779,1.097,1.0376,0.936,1.8742
	c-0.2131,1.1072-0.4761,2.2041-0.6812,3.3128c-0.2745,1.4841,0.1107,2.651,1.071,3.1849c0.738,0.4102,1.4859,0.8352,2.2773,1.0977
	c0.8615,0.2857,1.7725,0.4557,2.6739,0.5435c0.3584,0.035,0.7488-0.286,1.1247-0.445c-0.1329-0.2849-0.2439-0.5837-0.4028-0.8519
	c-0.4165-0.7029-0.8066-1.4967-0.3691-2.241c0.7931-1.3498,1.7002-2.634,2.6385-3.8816c0.3946-0.5248,0.8508-0.3971,1.205,0.1736
	c0.7752,1.2491,1.5298,2.5125,2.3249,3.7478c0.9183,1.427,1.7817,2.9193,3.3388,3.7294c2.4749,1.2876,5.0783,1.3541,7.7268,0.8114
	c0.3376-0.0692,0.8804-0.3906,0.8835-0.6024c0.006-0.3981-0.2578-0.8467-0.5164-1.1862c-0.1613-0.2119-0.5092-0.2955-0.7892-0.3804
	c-2.8715-0.8711-4.7994-2.8597-6.0799-5.5848c-0.4931-1.0492-0.2573-1.8369,0.72-2.4196c0.5223-0.3114,1.1251-0.5506,1.7177-0.6456
	c1.2689-0.2033,2.5532-0.3111,3.8343-0.4221c1.4455-0.1253,2.807,0.2166,4.0487,0.9824c1.0319,0.6364,2.0031,0.4948,3.2655-0.573
	c0.6146-0.5199,0.6788-1.1015,0.19-2.3104c-0.2458-0.6078-0.2504-1.1454,0.0185-1.7688c0.1978-0.4581,0.274-1.0369,0.2156-1.5381
	c-0.1688-1.4483-0.9037-2.6234-1.7811-3.7389c-0.3138-0.3991-0.6183-1.0353-0.5415-1.4934c0.215-1.2804-0.5109-1.9357-1.9473-1.544
	c-0.2281,0.0622-0.4922,0.1502-0.7024,0.0889c-2.762-0.8057-5.6144-0.8576-8.4412-1.1094c-1.3487-0.1201-2.6782-0.1646-3.9768-0.726
	c-2.2731-0.9827-4.5724-1.9284-6.9216-2.6855c-3.7966-1.2235-7.6629-2.1837-11.6382-2.5655
	c-2.9554-0.2838-5.9142-0.5321-8.8773-0.1347c-2.2267,0.2987-4.4645,0.5504-6.6679,0.9846c-2.8219,0.5561-5.65,1.1442-8.4074,1.9654
	c-2.0736,0.6175-4.103,1.4911-6.0414,2.4842c-4.0712,2.0858-7.4138,5.0741-9.6273,9.2628c-0.82,1.5517-1.5462,3.1733-1.4369,5.0286
	c0.1075,1.825,1.3272,2.8132,3.0251,2.3886c0.5884-0.1472,1.1967-0.3879,1.6874-0.7464c2.1013-1.5351,4.1188-3.1971,6.2503-4.6836
	c1.9823-1.3826,4.0659-2.6091,6.1153-3.8865C27.512,36.9531,28.1652,36.795,28.4072,36.7032z"/>
<rect x="36.789" y="12.2796" class="st0" width="32.2926" height="7.3756"/>
<text transform="matrix(1 0 0 1 40.177 18.2292)" class="st6 st7 st8">5 a 6 kg</text>
<polyline class="st9" points="11.0002,65.282 11.0002,61.3361 43.737,61.3361 43.737,65.282 "/>
<polyline class="st9" points="45.9035,65.282 45.9035,61.3361 87.1095,61.3361 87.1095,66.0514 "/>
</svg>
